<svg width="32" height="32" viewBox="0 0 32 32" fill="none" xmlns="http://www.w3.org/2000/svg">
<rect width="32" height="32" rx="4" fill="#E3FFFD"/>
<path d="M29.8097 15.0463C29.8097 15.1028 29.8041 15.1666 29.7944 15.2388L29.5036 17.3281H28.5623L28.8276 15.4697C28.8333 15.4045 28.8373 15.3648 28.8373 15.3507C28.8373 15.2147 28.7905 15.1466 28.6969 15.1466C28.6147 15.1466 28.5285 15.2034 28.439 15.3136C28.3497 15.4243 28.2548 15.586 28.1556 15.7972L27.9343 17.3281H26.9946L27.3916 14.4648H28.2097L28.2024 14.9541C28.3213 14.7756 28.4677 14.6323 28.6388 14.526C28.8102 14.4211 28.9877 14.3686 29.1705 14.3686C29.3703 14.3686 29.5277 14.4281 29.641 14.5444C29.7529 14.6633 29.8094 14.8308 29.8094 15.0463H29.8097Z" fill="#6EC0BD"/>
<path d="M29.4582 20.0893L29.6624 20.4325H29.5391L29.3563 20.1091H29.2373V20.4325H29.1324V19.67H29.3322C29.4288 19.67 29.4996 19.6883 29.5491 19.7238C29.5989 19.7605 29.6229 19.8147 29.6229 19.8852C29.6229 19.939 29.6086 19.9817 29.5818 20.0142C29.5551 20.0479 29.514 20.0736 29.4585 20.089L29.4582 20.0893ZM29.4695 19.9944C29.4966 19.9717 29.5107 19.935 29.5107 19.8852C29.5107 19.8384 29.4966 19.8043 29.4682 19.7832C29.4398 19.7619 29.3944 19.7518 29.3322 19.7518H29.2373V20.0282H29.3436C29.399 20.0282 29.4415 20.0168 29.4695 19.9944Z" fill="#6EC0BD"/>
<path d="M27.8551 19.67L28.0974 20.4325H27.9868L27.93 20.2397H27.6409L27.5828 20.4325H27.4779L27.7215 19.67H27.8551ZM27.9046 20.1545L27.7856 19.7575L27.6667 20.1545H27.9049H27.9046Z" fill="#6EC0BD"/>
<path d="M27.1818 14.4652L25.936 17.3341C25.6058 18.101 24.9863 18.502 24.0763 18.5374L24.0549 17.8771C24.3299 17.8444 24.5395 17.7892 24.6842 17.7097C24.8262 17.6318 24.9522 17.5042 25.0598 17.3284H24.7269L24.6588 16.8732L24.3015 14.4652H25.281L25.4043 16.7275L26.1993 14.4652H27.1818Z" fill="#6EC0BD"/>
<path d="M26.3199 20.0893L26.5255 20.4325H26.4008L26.218 20.1091H26.1004V20.4325H25.9955V19.67H26.1953C26.2902 19.67 26.3624 19.6883 26.4108 19.7238C26.4603 19.7605 26.4844 19.8147 26.4844 19.8852C26.4844 19.939 26.4717 19.9817 26.4446 20.0142C26.4162 20.0479 26.3754 20.0736 26.3199 20.089V20.0893ZM26.3316 19.9944C26.36 19.9717 26.3727 19.935 26.3727 19.8852C26.3727 19.8384 26.36 19.8043 26.3303 19.7832C26.3019 19.7619 26.2565 19.7518 26.1943 19.7518H26.1007V20.0282H26.2057C26.2611 20.0282 26.3036 20.0168 26.332 19.9944H26.3316Z" fill="#6EC0BD"/>
<path d="M24.8673 19.67V20.1873C24.8673 20.2384 24.8559 20.2822 24.8359 20.3206C24.8145 20.3604 24.7834 20.3901 24.7436 20.4128C24.7039 20.4342 24.6558 20.4452 24.5993 20.4452C24.5157 20.4452 24.4492 20.4212 24.4038 20.3744C24.357 20.3276 24.3346 20.2651 24.3346 20.1873V19.67H24.4395V20.1802C24.4395 20.2384 24.4539 20.2822 24.4793 20.3122C24.506 20.342 24.5458 20.356 24.5996 20.356C24.6534 20.356 24.6945 20.3417 24.7216 20.3122C24.7487 20.2838 24.7614 20.2397 24.7614 20.1802V19.67H24.868H24.8673Z" fill="#6EC0BD"/>
<path d="M24.6347 13.9606L24.2106 14.3713L24.1144 14.4648C24.0208 14.3853 23.9259 14.3258 23.8293 14.2847C23.7328 14.2436 23.6238 14.2222 23.5075 14.2222C23.2806 14.2222 23.0978 14.3115 22.9548 14.4916C22.8144 14.67 22.7125 14.8852 22.65 15.1392C22.5862 15.3915 22.5551 15.6351 22.5551 15.8721C22.5551 16.1414 22.6073 16.3412 22.7112 16.4719C22.8144 16.6022 22.9632 16.6674 23.1576 16.6674C23.2866 16.6674 23.4073 16.6403 23.5206 16.5865C23.6325 16.5327 23.7572 16.4562 23.8932 16.3569L24.2631 16.9311C24.103 17.0784 23.9146 17.1974 23.7003 17.291C23.4848 17.3832 23.2509 17.43 22.9959 17.43C22.7052 17.43 22.4519 17.3705 22.2333 17.2515C22.0151 17.1312 21.845 16.9538 21.7244 16.7215C21.6054 16.4893 21.5459 16.2069 21.5459 15.8784C21.5459 15.4984 21.6124 15.1272 21.7458 14.7629C21.8804 14.4 22.0946 14.0983 22.3864 13.8586C22.6784 13.6174 23.0484 13.4984 23.4962 13.4984C23.9797 13.4984 24.3593 13.6515 24.6344 13.9606H24.6347Z" fill="#6EC0BD"/>
<path d="M23.2542 20.2935L23.3067 20.3587C23.2826 20.3841 23.2529 20.4041 23.2158 20.4212C23.179 20.4369 23.1363 20.4452 23.0885 20.4452C23.026 20.4452 22.9722 20.4299 22.9224 20.3985C22.8743 20.3687 22.8375 20.3233 22.8104 20.2638C22.7834 20.2043 22.7693 20.1335 22.7693 20.0496C22.7693 19.9657 22.7834 19.8952 22.8118 19.8357C22.8402 19.7776 22.8783 19.7321 22.9254 19.7024C22.9735 19.671 23.0273 19.6556 23.0855 19.6556C23.1322 19.6556 23.1703 19.6626 23.2014 19.6736C23.2328 19.685 23.2639 19.705 23.298 19.7318L23.2398 19.7986C23.1931 19.7619 23.1449 19.7431 23.0925 19.7431C23.03 19.7431 22.9789 19.7659 22.9394 19.8157C22.901 19.8638 22.8813 19.9416 22.8813 20.0492C22.8813 20.1569 22.901 20.2307 22.9394 20.2818C22.9779 20.3316 23.029 20.3557 23.0911 20.3557C23.1239 20.3557 23.152 20.35 23.176 20.34C23.2014 20.3286 23.2272 20.3132 23.2539 20.2932L23.2542 20.2935Z" fill="#6EC0BD"/>
<path d="M21.701 19.9647C21.725 19.9901 21.7361 20.0185 21.7361 20.0543C21.7361 20.09 21.7247 20.1194 21.701 20.1435C21.6766 20.1662 21.6485 20.1789 21.6131 20.1789C21.5777 20.1789 21.5479 20.1662 21.5239 20.1421C21.5011 20.1194 21.4884 20.0897 21.4884 20.0543C21.4884 20.0188 21.5011 19.9888 21.5239 19.9647C21.5479 19.942 21.5777 19.9293 21.6131 19.9293C21.6485 19.9293 21.6769 19.942 21.701 19.9647Z" fill="#6EC0BD"/>
<path d="M21.3818 13.0519C21.4697 13.1382 21.5138 13.2491 21.5138 13.3851C21.5138 13.5535 21.4544 13.6939 21.3394 13.8075C21.2231 13.9195 21.0774 13.9759 20.907 13.9759C20.7596 13.9759 20.642 13.9335 20.5541 13.847C20.4662 13.7607 20.4234 13.6498 20.4234 13.5138C20.4234 13.3454 20.4802 13.205 20.5979 13.0914C20.7128 12.9794 20.8572 12.9226 21.0303 12.9226C21.1763 12.9226 21.2939 12.9651 21.3815 13.0516L21.3818 13.0519Z" fill="#6EC0BD"/>
<path d="M21.2983 14.4652L20.9 17.3284H19.9603L20.3586 14.4652H21.2983Z" fill="#6EC0BD"/>
<path d="M20.3048 20.0893L20.5103 20.4325H20.3857L20.2042 20.1091H20.0852V20.4325H19.9803V19.67H20.1801C20.275 19.67 20.3472 19.6883 20.3957 19.7238C20.4451 19.7605 20.4692 19.8147 20.4692 19.8852C20.4692 19.939 20.4565 19.9817 20.4281 20.0142C20.4014 20.0479 20.3603 20.0736 20.3048 20.089V20.0893ZM20.3161 19.9944C20.3446 19.9717 20.3573 19.935 20.3573 19.8852C20.3573 19.8384 20.3446 19.8043 20.3148 19.7832C20.2877 19.7619 20.2423 19.7518 20.1788 19.7518H20.0852V20.0282H20.1915C20.247 20.0282 20.2881 20.0168 20.3165 19.9944H20.3161Z" fill="#6EC0BD"/>
<path d="M19.977 13.337L19.4172 17.3284H18.5798L18.5855 16.9428C18.3559 17.2689 18.0725 17.4303 17.7363 17.4303C17.4429 17.4303 17.2204 17.3297 17.0673 17.1272C16.9159 16.926 16.8391 16.6397 16.8391 16.2711C16.8391 16.1478 16.8474 16.0244 16.8658 15.8998C17.3236 15.7 17.6852 15.4573 17.9472 15.1713C18.1697 14.929 18.2703 14.661 18.2449 14.3689C18.3652 14.3703 18.4775 14.3947 18.5794 14.4358C18.687 14.4812 18.7779 14.542 18.8531 14.6212L19.0416 13.2408L19.977 13.3373V13.337ZM18.6222 16.2483L18.7683 15.2164C18.675 15.1101 18.5641 15.0563 18.4354 15.0563C18.2837 15.0563 18.1617 15.1215 18.0695 15.2535C17.9759 15.3825 17.9094 15.5412 17.8697 15.7284C17.8312 15.9138 17.8115 16.0956 17.8115 16.2711C17.8115 16.4465 17.8342 16.5671 17.881 16.634C17.9278 16.7005 17.9913 16.7319 18.0752 16.7319C18.2439 16.7319 18.4267 16.5718 18.6222 16.2483Z" fill="#6EC0BD"/>
<path d="M18.7014 19.67L18.945 20.4325H18.8348L18.7766 20.2397H18.4872L18.4304 20.4325H18.3241L18.5694 19.67H18.7014ZM18.7512 20.1545L18.6336 19.7575L18.5146 20.1545H18.7512Z" fill="#6EC0BD"/>
<path d="M18.2453 14.3686C18.2707 14.6607 18.1701 14.9287 17.9475 15.171C17.6855 15.457 17.3236 15.6996 16.8661 15.8995C16.7558 15.2161 16.7826 14.7088 16.9497 14.38C17.1158 14.0511 17.3353 13.8553 17.6103 13.7945C17.7507 13.7634 17.878 13.7774 17.9903 13.8399C18.1039 13.9008 18.1804 14.0271 18.2229 14.2142C18.2342 14.2663 18.2413 14.3175 18.2456 14.3686H18.2453Z" fill="#005B55"/>
<path d="M17.4442 19.67L17.4329 19.7592H17.2217V20.4325H17.1171V19.7592H16.9002V19.67H17.4442Z" fill="#6EC0BD"/>
<path d="M16.801 12.947C16.8023 13.3156 16.6025 13.7821 16.2001 14.3445C15.8796 13.9619 15.6641 13.585 15.5552 13.2134C15.4476 12.8421 15.5054 12.5159 15.7336 12.2339C15.8539 12.0838 15.9789 12.0056 16.1065 12.0003C16.2355 11.996 16.3558 12.0387 16.4678 12.1293C16.6873 12.3064 16.798 12.5788 16.801 12.947Z" fill="#005B55"/>
<path d="M16.3588 14.5942C16.5513 14.7442 16.6492 14.9357 16.6492 15.1696C16.6492 15.4604 16.5219 15.6966 16.268 15.8811C16.2085 15.9222 16.142 15.9619 16.0694 15.9987C16.0441 16.0114 16.0156 16.0241 15.9886 16.0355C15.9248 16.0622 15.8579 16.0893 15.7861 16.1133C15.7349 16.13 15.6811 16.1457 15.626 16.1615C15.5381 16.1842 15.4459 16.2052 15.3483 16.2239C15.229 16.2467 15.1017 16.2664 14.967 16.2821C14.9429 16.2834 14.9189 16.2878 14.8935 16.2904C14.8821 16.2921 14.8708 16.2921 14.8581 16.2935C14.848 16.2948 14.8367 16.2948 14.8267 16.2961H14.8223C14.8394 16.5909 14.9954 16.7382 15.2885 16.7382C15.2972 16.7382 15.3055 16.7382 15.3142 16.7369C15.3226 16.7382 15.3299 16.7369 15.3383 16.7356C15.4108 16.7329 15.48 16.7212 15.5495 16.7028C15.5792 16.6958 15.609 16.6874 15.6387 16.6761C15.748 16.635 15.8726 16.5685 16.01 16.4762L16.3418 17.0333C16.1306 17.185 15.9124 17.2926 15.6885 17.3578C15.6557 17.3665 15.623 17.3762 15.5906 17.3835C15.5538 17.3919 15.5167 17.3992 15.4786 17.4049C15.4292 17.4133 15.3794 17.4206 15.3286 17.4246C15.2761 17.429 15.2237 17.4303 15.1712 17.4303C15.1187 17.4303 15.0663 17.429 15.0168 17.4246C14.6696 17.4006 14.4002 17.2913 14.2088 17.0998C13.9919 16.8803 13.8813 16.5812 13.8813 16.2056C13.8813 15.9195 13.9381 15.6358 14.0514 15.3551C14.1633 15.073 14.3448 14.8391 14.5971 14.6506C14.7074 14.5668 14.832 14.5016 14.9697 14.4552C15.0536 14.4267 15.1411 14.4054 15.2333 14.3913C15.2684 14.3856 15.3042 14.3816 15.3423 14.3786C15.4091 14.3713 15.477 14.3686 15.5465 14.3686C15.616 14.3686 15.6781 14.3699 15.739 14.3773C15.7774 14.38 15.8141 14.3843 15.8496 14.39C15.9064 14.3987 15.9598 14.4114 16.0096 14.4241C16.0267 14.4298 16.0437 14.4341 16.0608 14.4398C16.0892 14.4495 16.1172 14.4595 16.1443 14.4695C16.2238 14.5036 16.2944 14.5447 16.3585 14.5945L16.3588 14.5942ZM15.5167 15.5549C15.644 15.4517 15.7082 15.338 15.7082 15.2121C15.7082 15.1482 15.6898 15.0944 15.6514 15.0507C15.6344 15.0309 15.613 15.0166 15.5862 15.0069C15.5775 15.0039 15.5692 15.0012 15.5592 14.9982C15.5465 14.9955 15.5324 14.9912 15.5194 14.9898C15.511 14.9885 15.5024 14.9885 15.4927 14.9872H15.4613C15.4429 14.9872 15.4245 14.9872 15.4074 14.9898C15.3904 14.9912 15.3734 14.9942 15.3577 14.9982C15.244 15.0222 15.1478 15.0891 15.0716 15.198C14.9737 15.3397 14.9015 15.5198 14.8591 15.7381H14.8647C14.8818 15.7364 14.8988 15.7364 14.9159 15.735C14.9343 15.7337 14.951 15.7324 14.968 15.7307C15.0008 15.728 15.0335 15.7237 15.0646 15.7193H15.0659C15.0957 15.715 15.1254 15.7093 15.1538 15.7036H15.1551C15.1949 15.6949 15.233 15.6853 15.2671 15.6766C15.372 15.6468 15.4556 15.6057 15.5167 15.5546V15.5549Z" fill="#005B55"/>
<path d="M15.7717 19.67L16.0153 20.4325H15.905L15.8469 20.2397H15.5592L15.501 20.4325H15.3947L15.6384 19.67H15.7717ZM15.8212 20.1545L15.7035 19.7575L15.5832 20.1545H15.8215H15.8212Z" fill="#6EC0BD"/>
<path d="M15.0786 12.947C15.0813 13.3156 14.8801 13.7821 14.4778 14.3445C14.1573 13.9619 13.9418 13.585 13.8328 13.2134C13.7249 12.8421 13.7844 12.5159 14.0113 12.2339C14.1316 12.0838 14.2565 12.0056 14.3855 12.0003C14.5129 11.996 14.6335 12.0387 14.7468 12.1293C14.965 12.3064 15.0756 12.5788 15.0786 12.947Z" fill="#005B55"/>
<path d="M14.2382 20.0893L14.4424 20.4325H14.3174L14.1359 20.1091H14.0169V20.4325H13.912V19.67H14.1119C14.2084 19.67 14.2789 19.6883 14.3287 19.7238C14.3769 19.7605 14.4026 19.8147 14.4026 19.8852C14.4026 19.939 14.3882 19.9817 14.3615 20.0142C14.3344 20.0479 14.2933 20.0736 14.2378 20.089L14.2382 20.0893ZM14.2495 19.9944C14.2763 19.9717 14.2906 19.935 14.2906 19.8852C14.2906 19.8384 14.2763 19.8043 14.2482 19.7832C14.2198 19.7619 14.1743 19.7518 14.1122 19.7518H14.0173V20.0282H14.1239C14.179 20.0282 14.2218 20.0168 14.2499 19.9944H14.2495Z" fill="#6EC0BD"/>
<path d="M13.8669 13.5963L13.7747 14.9882C13.7603 14.7429 13.7122 14.5404 13.6316 14.3803C13.4672 14.0515 13.246 13.8556 12.971 13.7948C12.8293 13.7634 12.7033 13.7778 12.591 13.8403C12.567 13.853 12.5442 13.87 12.5245 13.8887L12.6151 13.5967H13.8669V13.5963Z" fill="#6EC0BD"/>
<path d="M13.7747 14.9882C13.7917 15.2448 13.772 15.5482 13.7138 15.8981V15.8995C13.3793 15.7534 13.096 15.5833 12.866 15.3922C12.8179 15.3511 12.7711 15.31 12.727 15.2672C12.6943 15.2361 12.6632 15.2034 12.6335 15.171C12.445 14.9654 12.3444 14.7415 12.333 14.4993C12.3287 14.407 12.3374 14.3121 12.3584 14.2142C12.3925 14.0668 12.4463 13.9576 12.5245 13.8884C12.5442 13.87 12.567 13.853 12.591 13.8399C12.703 13.7774 12.8293 13.7634 12.971 13.7945C13.246 13.8553 13.4669 14.0511 13.6316 14.38C13.7125 14.54 13.7606 14.7429 13.7747 14.9878V14.9882Z" fill="#005B55"/>
<path d="M13.7138 15.8998L13.6203 17.3314H12.6579L12.8039 15.9352C12.8209 15.7581 12.8423 15.5766 12.8664 15.3925C13.096 15.5837 13.3793 15.7538 13.7142 15.8998H13.7138Z" fill="#6EC0BD"/>
<path d="M12.8731 19.67L12.862 19.7592H12.6505V20.4325H12.5459V19.7592H12.329V19.67H12.8731Z" fill="#6EC0BD"/>
<path d="M12.7274 15.2675L12.1786 16.9501H11.2389L11.0562 14.3375C11.0461 14.661 11.0277 14.9444 11.0023 15.188C10.9783 15.4319 10.9415 15.6856 10.8957 15.9506L10.6648 17.3311H9.70241L10.4921 13.5963H11.6797L11.8144 16.1548L12.333 14.4993C12.3444 14.7415 12.445 14.9654 12.6335 15.171C12.6632 15.2034 12.6943 15.2361 12.727 15.2672L12.7274 15.2675Z" fill="#6EC0BD"/>
<path d="M11.3596 19.9647C11.3836 19.9901 11.395 20.0185 11.395 20.0543C11.395 20.09 11.3836 20.1194 11.3596 20.1435C11.3355 20.1662 11.3071 20.1789 11.2717 20.1789C11.2363 20.1789 11.2065 20.1662 11.1825 20.1421C11.1597 20.1194 11.147 20.0897 11.147 20.0543C11.147 20.0188 11.1597 19.9888 11.1825 19.9647C11.2065 19.942 11.2363 19.9293 11.2717 19.9293C11.3071 19.9293 11.3355 19.942 11.3596 19.9647Z" fill="#6EC0BD"/>
<path d="M9.96306 20.0893L10.1686 20.4325H10.0436L9.86214 20.1091H9.74318V20.4325H9.63825V19.67H9.83808C9.93299 19.67 10.0052 19.6883 10.0536 19.7238C10.1031 19.7605 10.1275 19.8147 10.1275 19.8852C10.1275 19.939 10.1148 19.9817 10.0864 20.0142C10.0593 20.0479 10.0182 20.0736 9.96273 20.089L9.96306 20.0893ZM9.97476 19.9944C10.0032 19.9717 10.0159 19.935 10.0159 19.8852C10.0159 19.8384 10.0032 19.8043 9.97342 19.7832C9.94636 19.7619 9.90091 19.7518 9.83741 19.7518H9.74385V20.0282H9.85045C9.90559 20.0282 9.94669 20.0168 9.97509 19.9944H9.97476Z" fill="#6EC0BD"/>
<path d="M9.86415 14.4679L9.66999 15.1285H9.12696L8.96121 16.3262C8.95385 16.3917 8.94984 16.4341 8.94984 16.4552C8.94984 16.5347 8.96689 16.5912 8.99964 16.6253C9.03071 16.6594 9.0775 16.6764 9.13865 16.6764C9.21652 16.6764 9.31577 16.6497 9.43473 16.5955L9.67567 17.2134C9.55804 17.286 9.42337 17.3398 9.27299 17.3778C9.12295 17.4146 8.98126 17.4333 8.84792 17.4333C8.5729 17.4333 8.3617 17.3611 8.217 17.2138C8.07263 17.0664 8.00012 16.8539 8.00012 16.5745C8.00012 16.495 8.00446 16.4131 8.01583 16.3262L8.18158 15.1285H7.82301L7.90789 14.4679H8.31625L8.49336 13.8443L9.31543 13.7477L9.21886 14.4675H9.86348L9.86415 14.4679Z" fill="#6EC0BD"/>
<path d="M8.36003 19.67L8.60397 20.4325H8.49336L8.43521 20.2397H8.14582L8.08934 20.4325H7.98274L8.22803 19.67H8.36003ZM8.40982 20.1545L8.29219 19.7575L8.17322 20.1545H8.40982Z" fill="#6EC0BD"/>
<path d="M7.41899 14.5955C7.61147 14.7469 7.70939 14.9384 7.70939 15.171C7.70939 15.8089 7.10018 16.1858 5.88245 16.2991C5.90083 16.5925 6.05555 16.7399 6.35029 16.7399C6.46792 16.7399 6.58255 16.7202 6.69316 16.6791C6.80377 16.638 6.92975 16.5701 7.07011 16.4779L7.40328 17.0363C7.03034 17.3017 6.63936 17.4333 6.23099 17.4333C5.82263 17.4333 5.48244 17.3244 5.26422 17.1032C5.04601 16.8833 4.93673 16.5842 4.93673 16.2086C4.93673 15.9225 4.99221 15.6388 5.10549 15.3568C5.21744 15.0761 5.40023 14.8408 5.6512 14.654C5.90217 14.4655 6.21963 14.3703 6.60794 14.3703C6.95515 14.3703 7.22583 14.4468 7.41865 14.5958L7.41899 14.5955ZM6.57286 15.5579C6.69884 15.4547 6.76434 15.3397 6.76434 15.2151C6.76434 15.1499 6.74462 15.0961 6.70753 15.0537C6.6691 15.0099 6.60828 14.9885 6.52173 14.9885C6.36032 14.9885 6.23133 15.0593 6.13208 15.201C6.03416 15.3431 5.96198 15.5228 5.91954 15.7411C6.22866 15.724 6.44687 15.6615 6.57286 15.5579Z" fill="#6EC0BD"/>
<path d="M6.90469 19.7492C6.97387 19.803 7.00962 19.9022 7.00962 20.0469C7.00962 20.1916 6.9742 20.2865 6.90469 20.3447C6.83518 20.4028 6.75164 20.4325 6.65105 20.4325H6.4696V19.67H6.62833C6.74328 19.67 6.83518 19.697 6.90469 19.7495V19.7492ZM6.83218 20.2835C6.87595 20.2397 6.89734 20.1615 6.89734 20.0469C6.89734 19.966 6.88598 19.9052 6.86359 19.8614C6.84086 19.819 6.81112 19.7906 6.77704 19.7752C6.74028 19.7609 6.69917 19.7538 6.65105 19.7538H6.57453V20.349H6.65941C6.73025 20.349 6.78706 20.3276 6.83251 20.2835H6.83218Z" fill="#6EC0BD"/>
<path d="M5.39221 13.5963L3.89979 17.3311H2.65799L2.15907 13.5963H3.17964L3.38382 16.6012L4.383 13.5963H5.39221Z" fill="#6EC0BD"/>
<path d="M5.33006 19.67H5.22513V20.4325H5.33006V19.67Z" fill="#6EC0BD"/>
<path d="M4.09662 19.67V20.1873C4.09662 20.2384 4.08659 20.2822 4.0652 20.3206C4.04382 20.3604 4.01441 20.3901 3.97331 20.4128C3.93354 20.4342 3.88542 20.4452 3.82994 20.4452C3.74506 20.4452 3.6799 20.4212 3.63278 20.3744C3.58733 20.3276 3.56361 20.2651 3.56361 20.1873V19.67H3.66854V20.1802C3.66854 20.2384 3.68291 20.2822 3.70964 20.3122C3.73537 20.342 3.77648 20.356 3.82994 20.356C3.88341 20.356 3.92351 20.3417 3.95192 20.3122C3.97765 20.2838 3.99035 20.2397 3.99035 20.1802V19.67H4.09695H4.09662Z" fill="#6EC0BD"/>
<path d="M2.48355 20.2935L2.53602 20.3587C2.51329 20.3841 2.48222 20.4041 2.44512 20.4212C2.40836 20.4369 2.36559 20.4452 2.31914 20.4452C2.25665 20.4452 2.20151 20.4299 2.15339 20.3985C2.10493 20.3687 2.06684 20.3233 2.03977 20.2638C2.0127 20.2043 2 20.1335 2 20.0496C2 19.9657 2.01437 19.8952 2.04244 19.8357C2.06917 19.7776 2.1076 19.7321 2.15606 19.7024C2.20418 19.671 2.25798 19.6556 2.31613 19.6556C2.36158 19.6556 2.39967 19.6626 2.43242 19.6736C2.46216 19.685 2.49491 19.705 2.52733 19.7318L2.46952 19.7986C2.42407 19.7619 2.37461 19.7431 2.32348 19.7431C2.25965 19.7431 2.20853 19.7659 2.17043 19.8157C2.13066 19.8638 2.11228 19.9416 2.11228 20.0492C2.11228 20.1569 2.13066 20.2307 2.16909 20.2818C2.20752 20.3316 2.25865 20.3557 2.32215 20.3557C2.35356 20.3557 2.38297 20.35 2.40703 20.34C2.43142 20.3286 2.45682 20.3132 2.48355 20.2932V20.2935Z" fill="#6EC0BD"/>
</svg>
