<svg width="32" height="32" viewBox="0 0 32 32" fill="none" xmlns="http://www.w3.org/2000/svg">
<rect width="32" height="32" rx="4" fill="#002C2B"/>
<path d="M30.0002 14.4134C30.0002 14.4711 29.9944 14.5355 29.9842 14.6092L29.6894 16.7308H28.7334L29.0025 14.8437C29.0083 14.7771 29.0127 14.7371 29.0127 14.7229C29.0127 14.5847 28.9652 14.5155 28.8702 14.5155C28.7867 14.5155 28.6988 14.5732 28.6082 14.6855C28.5173 14.7975 28.4212 14.9618 28.3204 15.1762L28.0958 16.7308H27.1415L27.5447 13.8232H28.3751L28.3679 14.32C28.4887 14.1385 28.637 13.9933 28.8111 13.8853C28.9852 13.7788 29.1654 13.7255 29.351 13.7255C29.554 13.7255 29.7138 13.7859 29.8288 13.904C29.9425 14.0248 29.9999 14.1945 29.9999 14.4134H30.0002Z" fill="white"/>
<path d="M29.6432 19.5345L29.8505 19.8826H29.725L29.5394 19.5545H29.4186V19.8826H29.312V19.1082H29.5149C29.613 19.1082 29.6846 19.1269 29.7352 19.1629C29.7854 19.2002 29.8102 19.2548 29.8102 19.3268C29.8102 19.3814 29.7956 19.4248 29.7684 19.4578C29.7409 19.4924 29.6992 19.5182 29.6429 19.5341L29.6432 19.5345ZM29.6547 19.4381C29.6819 19.415 29.6965 19.3777 29.6965 19.3274C29.6965 19.2799 29.6819 19.2453 29.6534 19.2239C29.6245 19.2022 29.5784 19.192 29.5153 19.192H29.4189V19.4727H29.5272C29.5831 19.4727 29.6262 19.4612 29.6551 19.4381H29.6547Z" fill="white"/>
<path d="M28.0154 19.1086L28.2617 19.883H28.1494L28.0917 19.6875H27.7982L27.7391 19.883H27.6326L27.8803 19.1086H28.0154ZM28.0659 19.6006L27.9451 19.1975L27.8243 19.6006H28.0663H28.0659Z" fill="white"/>
<path d="M27.3316 13.8232L26.0665 16.7365C25.7312 17.5153 25.1021 17.9226 24.178 17.9585L24.1563 17.2876C24.4356 17.2547 24.6487 17.1984 24.7953 17.118C24.9392 17.0389 25.0675 16.9093 25.1767 16.7308H24.8384L24.4067 13.8232H25.4014L25.5266 16.1203L26.3342 13.8232H27.3316Z" fill="white"/>
<path d="M26.4567 19.5345L26.6654 19.8826H26.5389L26.3532 19.5545H26.2338V19.8826H26.1272V19.1082H26.3302C26.4265 19.1082 26.5002 19.1269 26.549 19.1629C26.5996 19.2002 26.624 19.2548 26.624 19.3268C26.624 19.3814 26.6111 19.4248 26.5837 19.4578C26.5548 19.4924 26.5134 19.5182 26.4571 19.5341L26.4567 19.5345ZM26.4679 19.4381C26.4968 19.415 26.5097 19.3777 26.5097 19.3274C26.5097 19.2799 26.4968 19.2453 26.4666 19.2239C26.4377 19.2022 26.3919 19.192 26.3285 19.192H26.2338V19.4727H26.3403C26.3967 19.4727 26.4398 19.4612 26.4683 19.4381H26.4679Z" fill="white"/>
<path d="M24.9813 19.1086V19.6339C24.9813 19.6858 24.9697 19.7303 24.9497 19.7693C24.928 19.8097 24.8964 19.8395 24.856 19.8626C24.8157 19.8843 24.7668 19.8959 24.7094 19.8959C24.6246 19.8959 24.5567 19.8714 24.5109 19.8239C24.4634 19.7764 24.4403 19.7133 24.4403 19.6339V19.1086H24.5469V19.6268C24.5469 19.6858 24.5612 19.7303 24.5873 19.7605C24.6144 19.7907 24.6548 19.8052 24.7094 19.8052C24.7641 19.8052 24.8058 19.7907 24.8333 19.7605C24.8605 19.7316 24.8737 19.6872 24.8737 19.6268V19.1086H24.9816H24.9813Z" fill="white"/>
<path d="M24.7454 13.3108L24.2167 13.8232C24.122 13.7425 24.0253 13.6821 23.9276 13.6403C23.8299 13.5986 23.7189 13.5769 23.6008 13.5769C23.3704 13.5769 23.1848 13.6675 23.0395 13.8501C22.897 14.0313 22.7932 14.2501 22.73 14.508C22.6652 14.7643 22.6337 15.0116 22.6337 15.2522C22.6337 15.5257 22.6869 15.7287 22.7921 15.861C22.8973 15.9937 23.0483 16.0595 23.2455 16.0595C23.3765 16.0595 23.499 16.0324 23.614 15.9774C23.7277 15.9228 23.8543 15.8447 23.9927 15.7443L24.3684 16.3273C24.2059 16.4769 24.0141 16.5981 23.7969 16.6931C23.5781 16.7864 23.3409 16.8343 23.0816 16.8343C22.7864 16.8343 22.5288 16.7739 22.3072 16.6531C22.0856 16.5309 21.9129 16.3507 21.7904 16.1149C21.6696 15.8787 21.6092 15.5923 21.6092 15.2583C21.6092 14.8725 21.677 14.4955 21.8124 14.1256C21.9489 13.7571 22.1664 13.4503 22.463 13.2073C22.7596 12.9627 23.1349 12.8419 23.5899 12.8419C24.0806 12.8419 24.4665 12.9973 24.7458 13.3108H24.7454Z" fill="white"/>
<path d="M23.3432 19.7418L23.3962 19.8083C23.3717 19.8341 23.3415 19.8545 23.3042 19.8718C23.2669 19.8877 23.2234 19.8962 23.1746 19.8962C23.1111 19.8962 23.0568 19.8802 23.0063 19.8487C22.9574 19.8185 22.9201 19.7723 22.8926 19.7119C22.8654 19.6515 22.8508 19.5792 22.8508 19.4944C22.8508 19.4096 22.8654 19.3376 22.8939 19.2769C22.9228 19.2178 22.9618 19.172 23.0093 19.1418C23.0585 19.1099 23.1128 19.0943 23.1719 19.0943C23.2194 19.0943 23.2584 19.1018 23.29 19.113C23.3219 19.1245 23.3534 19.1449 23.388 19.172L23.329 19.2396C23.2815 19.2022 23.2326 19.1836 23.1793 19.1836C23.1159 19.1836 23.064 19.2066 23.0239 19.2569C22.9849 19.3061 22.9649 19.3851 22.9649 19.4944C22.9649 19.6037 22.9849 19.6787 23.0239 19.7306C23.0629 19.7808 23.1145 19.8056 23.178 19.8056C23.2109 19.8056 23.2397 19.7998 23.2642 19.7896C23.29 19.7781 23.3157 19.7622 23.3432 19.7421V19.7418Z" fill="white"/>
<path d="M21.7656 19.4079C21.79 19.4337 21.8016 19.4625 21.8016 19.4985C21.8016 19.5345 21.79 19.565 21.7656 19.5894C21.7412 19.6125 21.7127 19.6254 21.6764 19.6254C21.6401 19.6254 21.6102 19.6125 21.5854 19.5881C21.5623 19.565 21.5494 19.5348 21.5494 19.4988C21.5494 19.4628 21.5623 19.4326 21.5854 19.4082C21.6102 19.3851 21.6401 19.3722 21.6764 19.3722C21.7127 19.3722 21.7412 19.3851 21.7656 19.4082V19.4079Z" fill="white"/>
<path d="M21.4419 12.3881C21.5311 12.476 21.5759 12.5884 21.5759 12.7265C21.5759 12.8978 21.5155 13.0404 21.3988 13.1554C21.2807 13.2691 21.1327 13.3264 20.9597 13.3264C20.81 13.3264 20.6906 13.2833 20.6013 13.1955C20.5121 13.1076 20.469 12.9952 20.469 12.8571C20.469 12.6858 20.5267 12.5432 20.6461 12.4282C20.7625 12.3145 20.9094 12.2572 21.0849 12.2572C21.2332 12.2572 21.3526 12.3003 21.4419 12.3881Z" fill="white"/>
<path d="M21.357 13.8232L20.9525 16.7308H19.9983L20.4025 13.8232H21.357Z" fill="white"/>
<path d="M20.3482 19.5345L20.5569 19.8826H20.4303L20.246 19.5545H20.1252V19.8826H20.0187V19.1082H20.2216C20.318 19.1082 20.3916 19.1269 20.4405 19.1629C20.491 19.2002 20.5155 19.2548 20.5155 19.3268C20.5155 19.3814 20.5026 19.4248 20.4737 19.4578C20.4466 19.4924 20.4045 19.5182 20.3485 19.5341L20.3482 19.5345ZM20.3594 19.4381C20.3882 19.415 20.4011 19.3777 20.4011 19.3274C20.4011 19.2799 20.3882 19.2453 20.358 19.2239C20.3309 19.2022 20.2847 19.192 20.2199 19.192H20.1252V19.4727H20.2331C20.2895 19.4727 20.3312 19.4612 20.3597 19.4381H20.3594Z" fill="white"/>
<path d="M20.0156 12.6776L19.4472 16.7308H18.5965L18.6022 16.3392C18.3691 16.6704 18.0813 16.8343 17.7399 16.8343C17.442 16.8343 17.216 16.7321 17.0606 16.5261C16.9065 16.3219 16.8288 16.031 16.8288 15.6567C16.8288 15.5315 16.8373 15.4063 16.8559 15.2797C17.3208 15.0768 17.6877 14.8308 17.9541 14.5399C18.1801 14.2939 18.2822 14.0221 18.2564 13.7255C18.3786 13.7269 18.4923 13.7513 18.5958 13.793C18.7054 13.8392 18.7973 13.9013 18.8737 13.9817L19.0651 12.5799L20.0149 12.6779L20.0156 12.6776ZM18.6395 15.634L18.7878 14.5861C18.6928 14.4778 18.5805 14.4235 18.4495 14.4235C18.2958 14.4235 18.1716 14.4897 18.0783 14.6238C17.9833 14.7548 17.9157 14.9159 17.8753 15.106C17.8363 15.2943 17.8163 15.4786 17.8163 15.6571C17.8163 15.8356 17.8394 15.9577 17.8865 16.0256C17.934 16.0935 17.9989 16.125 18.0837 16.125C18.2551 16.125 18.4407 15.9625 18.6392 15.6343L18.6395 15.634Z" fill="white"/>
<path d="M18.7203 19.1086L18.9677 19.883H18.8554L18.7963 19.6875H18.5028L18.4451 19.883H18.3372L18.5863 19.1086H18.7203ZM18.7705 19.6006L18.6511 19.1975L18.5303 19.6006H18.7705Z" fill="white"/>
<path d="M18.2568 13.7255C18.2826 14.0221 18.1804 14.2939 17.9544 14.5399C17.688 14.8308 17.3208 15.0768 16.8563 15.2797C16.744 14.5861 16.7714 14.0706 16.9411 13.7367C17.1094 13.4028 17.3327 13.2043 17.6117 13.1425C17.7545 13.1106 17.8838 13.1252 17.9975 13.1887C18.1125 13.2504 18.1903 13.3787 18.2334 13.5687C18.2449 13.622 18.252 13.6736 18.2564 13.7255L18.2568 13.7255Z" fill="#3FB8B3"/>
<path d="M17.4434 19.1086L17.4322 19.1992H17.2173V19.8826H17.1111V19.1992H16.8909V19.1086H17.4434Z" fill="white"/>
<path d="M16.7901 12.2816C16.7915 12.6559 16.5885 13.1293 16.1796 13.7007C15.8545 13.3118 15.6357 12.9291 15.525 12.5521C15.4154 12.175 15.4745 11.8438 15.7062 11.5574C15.8284 11.4047 15.9553 11.3257 16.0846 11.3199C16.2156 11.3155 16.3381 11.3589 16.4518 11.4509C16.6747 11.6307 16.7871 11.907 16.7901 12.2813V12.2816Z" fill="#3FB8B3"/>
<path d="M16.3408 13.9542C16.5366 14.1069 16.636 14.3014 16.636 14.5386C16.636 14.8338 16.5064 15.0741 16.2489 15.2611C16.1884 15.3028 16.1206 15.3432 16.0473 15.3805C16.0211 15.3934 15.9926 15.4066 15.9652 15.4178C15.9003 15.4453 15.8325 15.4725 15.7592 15.4969C15.7076 15.5142 15.6526 15.5302 15.5966 15.5461C15.5074 15.5692 15.4137 15.5906 15.3146 15.6096C15.1938 15.6326 15.0642 15.6527 14.9274 15.6686C14.903 15.67 14.8782 15.6744 14.8524 15.6771C14.8409 15.6785 14.8294 15.6785 14.8165 15.6798C14.8066 15.6812 14.7948 15.6812 14.7849 15.6825H14.7805C14.7975 15.9818 14.9559 16.1318 15.2539 16.1318C15.2627 16.1318 15.2712 16.1318 15.2797 16.1305C15.2885 16.1318 15.2956 16.1305 15.3045 16.1291C15.3777 16.1261 15.4483 16.1145 15.5189 16.0959C15.5491 16.0887 15.5793 16.0799 15.6099 16.0687C15.7205 16.0266 15.8474 15.9591 15.9869 15.8654L16.3235 16.4311C16.109 16.5848 15.8874 16.6945 15.6601 16.7606C15.6272 16.7691 15.5939 16.7793 15.5607 16.7864C15.5233 16.7952 15.486 16.8024 15.447 16.8081C15.3964 16.817 15.3462 16.8241 15.2943 16.8282C15.241 16.8326 15.1877 16.8339 15.1344 16.8339C15.0812 16.8339 15.0279 16.8326 14.9777 16.8282C14.6251 16.8037 14.3516 16.6931 14.1575 16.4987C13.9372 16.2757 13.8249 15.972 13.8249 15.5906C13.8249 15.2997 13.8826 15.012 13.9976 14.7269C14.1113 14.4405 14.2952 14.203 14.5518 14.0116C14.6641 13.9267 14.7907 13.8606 14.9305 13.8131C15.0153 13.7842 15.1046 13.7628 15.1982 13.7483C15.2342 13.7425 15.2702 13.7384 15.3092 13.7354C15.3767 13.7282 15.446 13.7255 15.5165 13.7255C15.5871 13.7255 15.6506 13.7269 15.7123 13.734C15.7514 13.7367 15.7887 13.7415 15.8247 13.7469C15.882 13.7554 15.9367 13.7686 15.9872 13.7815C16.0042 13.7873 16.0215 13.7913 16.0388 13.7975C16.0676 13.8073 16.0965 13.8175 16.1236 13.8277C16.2044 13.8623 16.2763 13.904 16.3412 13.9542H16.3408ZM15.486 14.9302C15.6153 14.8253 15.6801 14.71 15.6801 14.582C15.6801 14.5172 15.6614 14.4626 15.6224 14.4178C15.6055 14.3978 15.5837 14.3835 15.5562 14.3733C15.5478 14.3706 15.5389 14.3676 15.5291 14.3648C15.5162 14.3621 15.5016 14.3574 15.4887 14.356C15.4799 14.3547 15.4714 14.3547 15.4612 14.3533H15.4297C15.411 14.3533 15.3923 14.3533 15.375 14.356C15.3577 14.3574 15.3404 14.3604 15.3248 14.3648C15.2094 14.3893 15.1117 14.4568 15.034 14.5678C14.9346 14.7117 14.8613 14.8946 14.8182 15.1162H14.8239C14.8412 15.1148 14.8582 15.1148 14.8755 15.1134C14.8942 15.1121 14.9115 15.1107 14.9288 15.109C14.962 15.1063 14.995 15.1016 15.0269 15.0975H15.0282C15.0584 15.0931 15.0886 15.0877 15.1175 15.0815H15.1188C15.1592 15.0731 15.1979 15.0629 15.2325 15.0544C15.3391 15.0242 15.4239 14.9825 15.486 14.9305V14.9302Z" fill="#3FB8B3"/>
<path d="M15.7453 19.1086L15.9926 19.883H15.8803L15.8213 19.6875H15.5291L15.4701 19.883H15.3621L15.6095 19.1086H15.7453ZM15.7955 19.6006L15.676 19.1975L15.5539 19.6006H15.7958H15.7955Z" fill="white"/>
<path d="M15.0415 12.2816C15.0442 12.6559 14.8399 13.1293 14.431 13.7007C14.1059 13.3118 13.887 12.9291 13.7764 12.5521C13.6668 12.175 13.7272 11.8438 13.9576 11.5574C14.0797 11.4047 14.2067 11.3257 14.3373 11.3199C14.4669 11.3155 14.5894 11.3589 14.7045 11.4509C14.9261 11.6307 15.0384 11.907 15.0415 12.2813V12.2816Z" fill="#3FB8B3"/>
<path d="M14.1877 19.5345L14.395 19.8826H14.2684L14.0842 19.5545H13.9634V19.8826H13.8568V19.1082H14.0597C14.1578 19.1082 14.2294 19.1269 14.28 19.1629C14.3288 19.2002 14.3546 19.2548 14.3546 19.3268C14.3546 19.3814 14.3404 19.4248 14.3129 19.4578C14.2857 19.4924 14.244 19.5182 14.1877 19.5341V19.5345ZM14.1992 19.4381C14.2263 19.415 14.2409 19.3777 14.2409 19.3274C14.2409 19.2799 14.2263 19.2453 14.1978 19.2239C14.169 19.2022 14.1228 19.192 14.0597 19.192H13.9634V19.4727H14.0713C14.1276 19.4727 14.1707 19.4612 14.1995 19.4381H14.1992Z" fill="white"/>
<path d="M13.717 14.3547C13.7024 14.1056 13.6535 13.8996 13.5714 13.7371C13.4044 13.4031 13.1801 13.2046 12.9009 13.1429C12.757 13.111 12.6287 13.1255 12.515 13.189C12.4906 13.2019 12.4675 13.2192 12.4472 13.2379L12.5395 12.9416H13.8103L13.717 14.355V14.3547Z" fill="white"/>
<path d="M12.7312 15.316C12.7482 15.1362 12.7699 14.9519 12.7946 14.7646C13.0278 14.959 13.3155 15.1318 13.6556 15.2801L13.5605 16.7338H12.5832L12.7315 15.3164L12.7312 15.316Z" fill="white"/>
<path d="M12.8014 19.1086L12.7899 19.1992H12.5758V19.8826H12.4692V19.1992H12.249V19.1086H12.8014Z" fill="white"/>
<path d="M12.5154 13.1887C12.629 13.1252 12.7573 13.111 12.9012 13.1425C13.1805 13.2043 13.4048 13.4031 13.5717 13.7367C13.6539 13.8993 13.7027 14.1052 13.7173 14.3543C13.7343 14.6149 13.7143 14.9227 13.6556 15.2784V15.2797C13.3159 15.1314 13.0278 14.9587 12.7946 14.7643C12.7454 14.7225 12.6983 14.6808 12.6535 14.6377C12.6202 14.6061 12.5887 14.5729 12.5585 14.5396C12.3671 14.3309 12.2646 14.1035 12.2534 13.8575C12.249 13.7642 12.2578 13.6675 12.2792 13.5684C12.3138 13.4187 12.3684 13.3078 12.4475 13.2372C12.4675 13.2185 12.4909 13.2016 12.5154 13.1883V13.1887Z" fill="#3FB8B3"/>
<path d="M12.2534 13.8579C12.2649 14.1042 12.3671 14.3316 12.5585 14.5399C12.5887 14.5732 12.6202 14.6065 12.6535 14.638L12.0963 16.3466H11.142L10.9564 13.694C10.9466 14.0221 10.9276 14.3102 10.9018 14.5576C10.8773 14.805 10.84 15.0629 10.7939 15.332L10.559 16.7338H9.58171L10.3836 12.9413H11.5896L11.7264 15.5393L12.253 13.8582L12.2534 13.8579Z" fill="white"/>
<path d="M11.2645 19.4079C11.289 19.4337 11.3002 19.4625 11.3002 19.4985C11.3002 19.5345 11.2886 19.565 11.2645 19.5894C11.2398 19.6125 11.2113 19.6254 11.1753 19.6254C11.1393 19.6254 11.1091 19.6125 11.0847 19.5881C11.0616 19.565 11.0487 19.5348 11.0487 19.4988C11.0487 19.4628 11.0616 19.4326 11.0847 19.4082C11.1091 19.3851 11.1393 19.3722 11.1753 19.3722C11.2113 19.3722 11.2401 19.3851 11.2645 19.4082V19.4079Z" fill="white"/>
<path d="M9.84674 19.5345L10.0554 19.8826H9.92886L9.74459 19.5545H9.62379V19.8826H9.51723V19.1082H9.72016C9.81654 19.1082 9.88983 19.1269 9.93904 19.1629C9.98926 19.2002 10.0137 19.2548 10.0137 19.3268C10.0137 19.3814 10.0008 19.4248 9.97196 19.4578C9.94481 19.4924 9.90307 19.5182 9.84674 19.5341V19.5345ZM9.85828 19.4381C9.88712 19.415 9.90001 19.3777 9.90001 19.3274C9.90001 19.2799 9.88712 19.2453 9.85658 19.2239C9.82943 19.2022 9.78328 19.192 9.71846 19.192H9.62345V19.4727H9.73136C9.78769 19.4727 9.82943 19.4612 9.85828 19.4381Z" fill="white"/>
<path d="M9.74595 13.8263L9.54879 14.4968H8.99769L8.82904 15.7131C8.82191 15.7792 8.8175 15.8223 8.8175 15.8441C8.8175 15.9248 8.83481 15.9822 8.86772 16.0168C8.89962 16.0514 8.94679 16.0687 9.00889 16.0687C9.08796 16.0687 9.18874 16.0412 9.30955 15.9866L9.55422 16.6144C9.43477 16.6877 9.29835 16.7423 9.14565 16.7813C8.99294 16.8187 8.84906 16.8377 8.714 16.8377C8.43472 16.8377 8.22025 16.764 8.07331 16.6147C7.92637 16.4651 7.85308 16.2492 7.85308 15.9655C7.85308 15.8848 7.85749 15.8016 7.86902 15.7137L8.03734 14.4975H7.67322L7.75942 13.827H8.1741L8.35395 13.1934L9.18874 13.0957L9.09067 13.8266H9.74561L9.74595 13.8263Z" fill="white"/>
<path d="M8.21889 19.1086L8.46627 19.883H8.35429L8.29524 19.6875H8.00137L7.94368 19.883H7.83577L8.08485 19.1086H8.21889ZM8.26911 19.6006L8.14966 19.1975L8.02886 19.6006H8.26911Z" fill="white"/>
<path d="M7.26295 13.9556C7.45875 14.1097 7.55818 14.3041 7.55818 14.5399C7.55818 15.1878 6.93921 15.5705 5.70297 15.6859C5.72164 15.9835 5.87842 16.1335 6.17772 16.1335C6.29717 16.1335 6.41391 16.1135 6.52623 16.0718C6.63821 16.03 6.76649 15.9608 6.90901 15.8675L7.24734 16.4345C6.86863 16.7036 6.47159 16.8377 6.05691 16.8377C5.64223 16.8377 5.29712 16.7267 5.07518 16.5024C4.85359 16.2794 4.74296 15.9757 4.74296 15.5943C4.74296 15.3035 4.79929 15.0157 4.91399 14.7293C5.02767 14.4442 5.2133 14.2054 5.46815 14.0153C5.723 13.8239 6.04537 13.7276 6.4397 13.7276C6.79228 13.7276 7.06749 13.8053 7.26295 13.9563V13.9556ZM6.40373 14.9329C6.53166 14.8281 6.59783 14.7113 6.59783 14.5847C6.59783 14.5182 6.57781 14.4639 6.54014 14.4208C6.50112 14.376 6.43936 14.3543 6.35181 14.3543C6.1879 14.3543 6.05657 14.4263 5.95579 14.5701C5.85636 14.714 5.78306 14.8969 5.73996 15.1185C6.05352 15.1012 6.27511 15.0378 6.40339 14.9329H6.40373Z" fill="white"/>
<path d="M6.74036 19.189C6.81094 19.2436 6.84691 19.3444 6.84691 19.4914C6.84691 19.6383 6.81094 19.7347 6.74036 19.7937C6.67011 19.8528 6.58494 19.883 6.48279 19.883H6.29853V19.1086H6.45972C6.57645 19.1086 6.67011 19.1357 6.74036 19.1893V19.189ZM6.66706 19.7316C6.71151 19.6872 6.73323 19.6077 6.73323 19.4914C6.73323 19.4092 6.72169 19.3475 6.69862 19.303C6.67554 19.2596 6.64568 19.2311 6.61107 19.2151C6.57374 19.2005 6.532 19.1934 6.48313 19.1934H6.40542V19.7978H6.49162C6.56356 19.7978 6.62091 19.7761 6.6674 19.7316H6.66706Z" fill="white"/>
<path d="M5.20481 12.9409L3.68895 16.7338H2.42828L1.92163 12.9409H2.958L3.165 15.9924L4.17999 12.9409H5.20481Z" fill="white"/>
<path d="M5.14136 19.1086H5.0348V19.883H5.14136V19.1086Z" fill="white"/>
<path d="M3.88917 19.1086V19.6339C3.88917 19.6858 3.87933 19.7303 3.85761 19.7693C3.83589 19.8097 3.80569 19.8395 3.76395 19.8626C3.72356 19.8843 3.6747 19.8959 3.61871 19.8959C3.53251 19.8959 3.466 19.8714 3.41849 19.8239C3.37234 19.7764 3.34791 19.7133 3.34791 19.6339V19.1086H3.45446V19.6268C3.45446 19.6858 3.46905 19.7303 3.4962 19.7605C3.52199 19.7907 3.56373 19.8052 3.61837 19.8052C3.673 19.8052 3.71338 19.7907 3.74223 19.7605C3.76802 19.7316 3.78125 19.6872 3.78125 19.6268V19.1086H3.88917Z" fill="white"/>
<path d="M2.25114 19.7418L2.30442 19.8083C2.28134 19.8341 2.24978 19.8545 2.21211 19.8718C2.17479 19.8877 2.13135 19.8962 2.08418 19.8962C2.02072 19.8962 1.96473 19.8802 1.91553 19.8487C1.86666 19.8185 1.82797 19.7723 1.80015 19.7119C1.773 19.6515 1.75977 19.5792 1.75977 19.4944C1.75977 19.4096 1.77436 19.3376 1.8032 19.2769C1.83035 19.2178 1.86937 19.172 1.91824 19.1418C1.96745 19.1099 2.02208 19.0943 2.08079 19.0943C2.12694 19.0943 2.16596 19.1018 2.19888 19.113C2.22908 19.1245 2.26234 19.1449 2.29525 19.172L2.23621 19.2396C2.19006 19.2022 2.13983 19.1836 2.08791 19.1836C2.0231 19.1836 1.97118 19.2066 1.93249 19.2569C1.89211 19.3061 1.87345 19.3851 1.87345 19.4944C1.87345 19.6037 1.89211 19.6787 1.93114 19.7306C1.97016 19.7808 2.02208 19.8056 2.08656 19.8056C2.11812 19.8056 2.14832 19.7998 2.17275 19.7896C2.19718 19.7781 2.22331 19.7622 2.25046 19.7421L2.25114 19.7418Z" fill="white"/>
</svg>
