<svg width="32" height="32" viewBox="0 0 32 32" fill="none" xmlns="http://www.w3.org/2000/svg">
<rect width="32" height="32" rx="16" fill="#002C2B"/>
<path d="M14.433 21.5234C14.4937 22.5157 15.0197 23.0118 16.013 23.0118C16.4115 23.0118 16.799 22.9421 17.1746 22.8026C17.5502 22.6631 17.9736 22.436 18.4448 22.1212L19.5705 24.009C18.3113 24.9046 16.9923 25.3529 15.6125 25.3529C14.2327 25.3529 13.0821 24.9804 12.3438 24.2362C11.6056 23.491 11.237 22.4838 11.237 21.2126C11.237 20.2443 11.4273 19.2849 11.8089 18.3345C12.1904 17.3841 12.8041 16.5911 13.6519 15.9555C14.4987 15.3199 15.5766 15.0021 16.8837 15.0021C18.0582 15.0021 18.9718 15.2561 19.6253 15.7642C20.2789 16.2723 20.6056 16.9198 20.6056 17.7069C20.6056 19.8617 18.5474 21.1319 14.432 21.5194L14.433 21.5234ZM16.7661 19.0179C17.1965 18.6672 17.4107 18.2797 17.4107 17.8563C17.4107 17.6381 17.3469 17.4568 17.2204 17.3114C17.0929 17.1659 16.8837 17.0932 16.5938 17.0932C16.0488 17.0932 15.6105 17.3323 15.2768 17.8105C14.944 18.2887 14.7049 18.8974 14.5595 19.6356C15.6005 19.5748 16.3358 19.3696 16.7651 19.0179H16.7661Z" fill="#6EC0BD"/>
<path d="M10.3932 15.0449C9.83334 13.9311 9.09015 13.2716 8.16067 13.0654C7.68247 12.9588 7.25409 13.0106 6.87453 13.2178C6.49397 13.426 6.23296 13.8484 6.09149 14.485C5.82649 15.6785 6.13732 16.7574 7.02197 17.7198C7.90762 18.6822 9.12502 19.5021 10.6722 20.1795C11.0468 17.8682 10.9541 16.1567 10.3932 15.0449Z" fill="#6EC0BD"/>
<path d="M21.6068 15.0449C22.1667 13.9311 22.9098 13.2716 23.8393 13.0654C24.3175 12.9588 24.7459 13.0106 25.1255 13.2178C25.506 13.426 25.767 13.8484 25.9085 14.485C26.1735 15.6785 25.8627 16.7574 24.978 17.7198C24.0924 18.6822 22.875 19.5021 21.3278 20.1795C20.9532 17.8682 21.0459 16.1567 21.6068 15.0449Z" fill="#6EC0BD"/>
<path d="M15.2827 10.2002C15.2748 8.95395 14.9012 8.03343 14.16 7.43569C13.7784 7.12885 13.372 6.9844 12.9396 7.00133C12.5062 7.01926 12.0848 7.28227 11.6754 7.78935C10.9083 8.74175 10.708 9.84558 11.0746 11.1008C11.4413 12.3571 12.1685 13.6313 13.2544 14.9244C14.6153 13.0196 15.2917 11.4445 15.2827 10.1992V10.2002Z" fill="#6EC0BD"/>
<path d="M21.1027 10.2002C21.0948 8.95395 20.7212 8.03343 19.98 7.43569C19.5984 7.12885 19.192 6.9844 18.7596 7.00133C18.3262 7.01926 17.9048 7.28227 17.4954 7.78935C16.7283 8.74175 16.528 9.84558 16.8946 11.1008C17.2613 12.3571 17.9885 13.6313 19.0744 14.9244C20.4352 13.0196 21.1117 11.4445 21.1027 10.1992V10.2002Z" fill="#6EC0BD"/>
</svg>
