<svg width="32" height="32" viewBox="0 0 32 32" fill="none" xmlns="http://www.w3.org/2000/svg">
<rect width="32" height="32" rx="4" fill="#E3FFFD"/>
<path d="M14.0101 21.8268C14.0763 22.9081 14.6495 23.4487 15.7319 23.4487C16.1661 23.4487 16.5885 23.3728 16.9977 23.2208C17.407 23.0688 17.8684 22.8212 18.3819 22.4782L19.6087 24.5355C18.2365 25.5115 16.7991 26 15.2955 26C13.7919 26 12.5379 25.594 11.7335 24.783C10.929 23.9709 10.5273 22.8734 10.5273 21.4881C10.5273 20.4328 10.7347 19.3874 11.1505 18.3517C11.5663 17.316 12.235 16.4518 13.1589 15.7592C14.0817 15.0665 15.2564 14.7202 16.6807 14.7202C17.9607 14.7202 18.9562 14.9971 19.6684 15.5507C20.3806 16.1044 20.7367 16.8101 20.7367 17.6677C20.7367 20.016 18.4938 21.4001 14.009 21.8225L14.0101 21.8268ZM16.5526 19.0964C17.0216 18.7143 17.255 18.292 17.255 17.8306C17.255 17.5928 17.1856 17.3952 17.0477 17.2367C16.9087 17.0782 16.6807 16.999 16.3648 16.999C15.771 16.999 15.2933 17.2595 14.9296 17.7806C14.567 18.3017 14.3064 18.9651 14.1479 19.7695C15.2824 19.7033 16.0836 19.4797 16.5515 19.0964H16.5526Z" fill="#005B55"/>
<path d="M9.6078 14.7669C8.99767 13.5532 8.18778 12.8345 7.17488 12.6097C6.65378 12.4936 6.18695 12.55 5.77332 12.7758C5.35861 13.0027 5.07417 13.463 4.92001 14.1568C4.63123 15.4574 4.96995 16.6331 5.934 17.6818C6.89913 18.7306 8.22578 19.624 9.91178 20.3623C10.32 17.8436 10.219 15.9785 9.6078 14.7669Z" fill="#005B55"/>
<path d="M21.8277 14.7669C22.4378 13.5532 23.2477 12.8345 24.2606 12.6097C24.7817 12.4936 25.2485 12.55 25.6622 12.7758C26.0769 13.0027 26.3613 13.463 26.5155 14.1568C26.8043 15.4574 26.4655 16.6331 25.5015 17.6818C24.5364 18.7306 23.2097 19.624 21.5237 20.3623C21.1155 17.8436 21.2165 15.9785 21.8277 14.7669Z" fill="#005B55"/>
<path d="M14.9361 9.48744C14.9274 8.1293 14.5203 7.12617 13.7126 6.47479C13.2968 6.14041 12.8539 5.983 12.3827 6.00145C11.9104 6.02099 11.4512 6.3076 11.005 6.86019C10.1691 7.89806 9.95086 9.10095 10.3504 10.4689C10.7499 11.8378 11.5424 13.2264 12.7258 14.6355C14.2087 12.5598 14.9459 10.8434 14.9361 9.48635V9.48744Z" fill="#005B55"/>
<path d="M21.2784 9.48744C21.2697 8.1293 20.8626 7.12617 20.0549 6.47479C19.6391 6.14041 19.1962 5.983 18.725 6.00145C18.2527 6.02099 17.7935 6.3076 17.3473 6.86019C16.5114 7.89806 16.2932 9.10095 16.6927 10.4689C17.0922 11.8378 17.8847 13.2264 19.068 14.6355C20.551 12.5598 21.2882 10.8434 21.2784 9.48635V9.48744Z" fill="#005B55"/>
</svg>
