<svg width="37" height="36" viewBox="0 0 37 36" fill="none" xmlns="http://www.w3.org/2000/svg">
<rect x="0.333008" width="36.001" height="36.0005" rx="18.0002" fill="#006A68"/>
<path d="M19.3616 8C20.4866 8.003 21.0576 8.009 21.5506 8.023L21.7446 8.03C21.9686 8.038 22.1896 8.048 22.4566 8.06C23.5206 8.11 24.2466 8.278 24.8836 8.525C25.5436 8.779 26.0996 9.123 26.6556 9.678C27.1641 10.1779 27.5575 10.7826 27.8086 11.45C28.0556 12.087 28.2236 12.813 28.2736 13.878C28.2856 14.144 28.2956 14.365 28.3036 14.59L28.3096 14.784C28.3246 15.276 28.3306 15.847 28.3326 16.972L28.3336 17.718V19.028C28.336 19.7574 28.3284 20.4868 28.3106 21.216L28.3046 21.41C28.2966 21.635 28.2866 21.856 28.2746 22.122C28.2246 23.187 28.0546 23.912 27.8086 24.55C27.5583 25.2178 27.1647 25.8226 26.6556 26.322C26.1555 26.8303 25.5509 27.2238 24.8836 27.475C24.2466 27.722 23.5206 27.89 22.4566 27.94C22.2193 27.9512 21.982 27.9612 21.7446 27.97L21.5506 27.976C21.0576 27.99 20.4866 27.997 19.3616 27.999L18.6156 28H17.3066C16.5768 28.0025 15.8471 27.9949 15.1176 27.977L14.9236 27.971C14.6862 27.962 14.4489 27.9517 14.2116 27.94C13.1476 27.89 12.4216 27.722 11.7836 27.475C11.1163 27.2244 10.5118 26.8308 10.0126 26.322C9.50363 25.8223 9.10981 25.2176 8.85858 24.55C8.61158 23.913 8.44358 23.187 8.39358 22.122C8.38244 21.8847 8.37244 21.6474 8.36358 21.41L8.35858 21.216C8.34016 20.4868 8.33182 19.7574 8.33358 19.028V16.972C8.33079 16.2426 8.33813 15.5132 8.35558 14.784L8.36258 14.59C8.37058 14.365 8.38058 14.144 8.39258 13.878C8.44258 12.813 8.61058 12.088 8.85758 11.45C9.1087 10.7819 9.50331 10.177 10.0136 9.678C10.5127 9.16947 11.1167 8.77599 11.7836 8.525C12.4216 8.278 13.1466 8.11 14.2116 8.06C14.4776 8.048 14.6996 8.038 14.9236 8.03L15.1176 8.024C15.8468 8.00623 16.5762 7.99857 17.3056 8.001L19.3616 8ZM18.3336 13C17.0075 13 15.7357 13.5268 14.7981 14.4645C13.8604 15.4021 13.3336 16.6739 13.3336 18C13.3336 19.3261 13.8604 20.5979 14.7981 21.5355C15.7357 22.4732 17.0075 23 18.3336 23C19.6597 23 20.9314 22.4732 21.8691 21.5355C22.8068 20.5979 23.3336 19.3261 23.3336 18C23.3336 16.6739 22.8068 15.4021 21.8691 14.4645C20.9314 13.5268 19.6597 13 18.3336 13ZM18.3336 15C18.7276 14.9999 19.1177 15.0775 19.4817 15.2282C19.8457 15.3789 20.1764 15.5998 20.4551 15.8783C20.7337 16.1569 20.9547 16.4875 21.1055 16.8515C21.2564 17.2154 21.334 17.6055 21.3341 17.9995C21.3342 18.3935 21.2566 18.7836 21.1059 19.1476C20.9552 19.5116 20.7343 19.8423 20.4558 20.121C20.1772 20.3996 19.8465 20.6206 19.4826 20.7714C19.1186 20.9223 18.7286 20.9999 18.3346 21C17.5389 21 16.7759 20.6839 16.2133 20.1213C15.6507 19.5587 15.3346 18.7956 15.3346 18C15.3346 17.2044 15.6507 16.4413 16.2133 15.8787C16.7759 15.3161 17.5389 15 18.3346 15M23.5846 11.5C23.2531 11.5 22.9351 11.6317 22.7007 11.8661C22.4663 12.1005 22.3346 12.4185 22.3346 12.75C22.3346 13.0815 22.4663 13.3995 22.7007 13.6339C22.9351 13.8683 23.2531 14 23.5846 14C23.9161 14 24.234 13.8683 24.4685 13.6339C24.7029 13.3995 24.8346 13.0815 24.8346 12.75C24.8346 12.4185 24.7029 12.1005 24.4685 11.8661C24.234 11.6317 23.9161 11.5 23.5846 11.5Z" fill="white"/>
</svg>
