<svg width="36" height="36" viewBox="0 0 36 36" fill="none" xmlns="http://www.w3.org/2000/svg">
<rect y="0.000228882" width="36" height="36" rx="18" fill="#006A68"/>
<path d="M23.2806 11.1336C22.4959 10.2665 22.0634 9.15293 22.0638 8.00023H18.5166V21.778C18.4892 22.5236 18.164 23.2298 17.6094 23.7479C17.0548 24.2661 16.3142 24.5557 15.5434 24.5558C13.9133 24.5558 12.5587 23.2669 12.5587 21.6669C12.5587 19.7558 14.4643 18.3225 16.4273 18.9113V15.4002C12.4668 14.8891 9 17.8669 9 21.6669C9 25.3669 12.1684 28.0002 15.5319 28.0002C19.1365 28.0002 22.0638 25.1669 22.0638 21.6669V14.678C23.5022 15.6778 25.2291 16.2143 27 16.2113V12.778C27 12.778 24.8418 12.878 23.2806 11.1336Z" fill="white"/>
</svg>
