<svg width="351" height="107" viewBox="0 0 351 107" fill="none" xmlns="http://www.w3.org/2000/svg">
<path d="M351 38.5963C351 39.3118 350.928 40.1205 350.806 41.035L347.137 67.5057H335.255L338.604 43.9607C338.676 43.1351 338.726 42.6312 338.726 42.4534C338.726 40.7302 338.136 39.8665 336.955 39.8665C335.917 39.8665 334.829 40.5862 333.699 41.9834C332.572 43.3849 331.375 45.4341 330.122 48.11L327.33 67.5057H315.469L320.48 31.2292H330.805L330.712 37.4277C332.214 35.1668 334.061 33.3504 336.221 32.004C338.385 30.6745 340.624 30.0098 342.931 30.0098C345.454 30.0098 347.44 30.7635 348.87 32.2369C350.283 33.7442 350.996 35.8654 350.996 38.5963H351Z" fill="#6EC0BD"/>
<path d="M346.563 102.491L349.14 106.839H347.584L345.276 102.741H343.775V106.839H342.451V97.1772H344.973C346.192 97.1772 347.086 97.4101 347.71 97.8589C348.339 98.3246 348.642 99.0105 348.642 99.9039C348.642 100.586 348.461 101.128 348.123 101.538C347.786 101.966 347.267 102.292 346.567 102.487L346.563 102.491ZM346.706 101.288C347.048 101 347.225 100.535 347.225 99.9039C347.225 99.3111 347.048 98.8793 346.689 98.6125C346.331 98.3416 345.757 98.2145 344.973 98.2145H343.775V101.716H345.116C345.816 101.716 346.352 101.572 346.706 101.288Z" fill="#6EC0BD"/>
<path d="M326.33 97.1772L329.388 106.839H327.992L327.275 104.396H323.627L322.893 106.839H321.568L324.643 97.1772H326.33ZM326.954 103.316L325.453 98.2865L323.951 103.316H326.959H326.954Z" fill="#6EC0BD"/>
<path d="M317.831 31.2334L302.107 67.5819C297.94 77.2988 290.12 82.3796 278.635 82.8284L278.365 74.4621C281.837 74.0472 284.481 73.3486 286.308 72.3409C288.1 71.3544 289.69 69.737 291.048 67.5099H286.847L285.987 61.7433L281.478 31.2334H293.841L295.397 59.8973L305.431 31.2334H317.831Z" fill="#6EC0BD"/>
<path d="M306.954 102.491L309.548 106.839H307.974L305.667 102.741H304.183V106.839H302.858V97.1772H305.38C306.578 97.1772 307.489 97.4101 308.101 97.8589C308.725 98.3246 309.029 99.0105 309.029 99.9039C309.029 100.586 308.868 101.128 308.527 101.538C308.168 101.966 307.654 102.292 306.954 102.487V102.491ZM307.101 101.288C307.46 101 307.62 100.535 307.62 99.9039C307.62 99.3111 307.46 98.8793 307.084 98.6125C306.726 98.3416 306.152 98.2145 305.368 98.2145H304.187V101.716H305.511C306.211 101.716 306.747 101.572 307.105 101.288H307.101Z" fill="#6EC0BD"/>
<path d="M288.619 97.1772V103.731C288.619 104.379 288.475 104.934 288.222 105.421C287.952 105.925 287.56 106.301 287.058 106.589C286.556 106.86 285.949 107 285.236 107C284.182 107 283.342 106.695 282.769 106.102C282.178 105.51 281.896 104.718 281.896 103.731V97.1772H283.22V103.642C283.22 104.379 283.402 104.934 283.722 105.315C284.06 105.692 284.561 105.87 285.24 105.87C285.92 105.87 286.438 105.687 286.78 105.315C287.122 104.955 287.282 104.396 287.282 103.642V97.1772H288.627H288.619Z" fill="#6EC0BD"/>
<path d="M285.683 24.8402L280.331 30.0437L279.116 31.2292C277.935 30.2215 276.737 29.4679 275.518 28.9471C274.3 28.4263 272.925 28.1554 271.457 28.1554C268.593 28.1554 266.286 29.2858 264.481 31.5679C262.709 33.8288 261.423 36.5555 260.634 39.7733C259.828 42.97 259.436 46.0565 259.436 49.0584C259.436 52.4709 260.094 55.0028 261.406 56.6583C262.709 58.3096 264.586 59.1352 267.041 59.1352C268.669 59.1352 270.191 58.7922 271.621 58.1106C273.034 57.4289 274.607 56.4593 276.324 55.2018L280.993 62.4758C278.973 64.3429 276.594 65.8502 273.89 67.0357C271.17 68.2043 268.217 68.7971 264.999 68.7971C261.33 68.7971 258.133 68.0434 255.374 66.5361C252.62 65.0119 250.473 62.7637 248.951 59.8211C247.449 56.8785 246.698 53.3008 246.698 49.1388C246.698 44.3248 247.538 39.6209 249.221 35.0059C250.92 30.4078 253.624 26.5846 257.306 23.5488C260.992 20.4919 265.661 18.9846 271.313 18.9846C277.416 18.9846 282.208 20.9238 285.679 24.8402H285.683Z" fill="#6EC0BD"/>
<path d="M268.26 105.078L268.922 105.903C268.618 106.225 268.243 106.479 267.775 106.695C267.311 106.894 266.771 107 266.168 107C265.379 107 264.7 106.805 264.071 106.407C263.464 106.03 263 105.455 262.658 104.701C262.317 103.947 262.14 103.05 262.14 101.987C262.14 100.924 262.317 100.031 262.675 99.2773C263.034 98.5406 263.515 97.9648 264.109 97.5879C264.717 97.1899 265.396 96.9952 266.13 96.9952C266.72 96.9952 267.201 97.0841 267.593 97.2238C267.99 97.3678 268.382 97.6218 268.812 97.9605L268.078 98.8073C267.488 98.3416 266.88 98.1045 266.218 98.1045C265.43 98.1045 264.784 98.3924 264.286 99.0232C263.801 99.6329 263.553 100.619 263.553 101.983C263.553 103.346 263.801 104.282 264.286 104.93C264.772 105.56 265.417 105.865 266.201 105.865C266.615 105.865 266.969 105.793 267.273 105.666C267.593 105.522 267.918 105.328 268.255 105.074L268.26 105.078Z" fill="#6EC0BD"/>
<path d="M248.655 100.912C248.959 101.233 249.098 101.593 249.098 102.046C249.098 102.499 248.955 102.872 248.655 103.177C248.348 103.465 247.993 103.626 247.546 103.626C247.099 103.626 246.724 103.465 246.42 103.16C246.133 102.872 245.973 102.495 245.973 102.046C245.973 101.597 246.133 101.216 246.42 100.912C246.724 100.624 247.099 100.463 247.546 100.463C247.993 100.463 248.352 100.624 248.655 100.912Z" fill="#6EC0BD"/>
<path d="M244.627 13.328C245.737 14.4204 246.293 15.8261 246.293 17.5493C246.293 19.6832 245.543 21.4615 244.092 22.901C242.624 24.3194 240.785 25.0349 238.634 25.0349C236.774 25.0349 235.289 24.4972 234.18 23.4006C233.071 22.3083 232.531 20.9026 232.531 19.1794C232.531 17.0455 233.248 15.2672 234.732 13.8277C236.183 12.4093 238.005 11.6895 240.19 11.6895C242.033 11.6895 243.518 12.2272 244.623 13.3238L244.627 13.328Z" fill="#6EC0BD"/>
<path d="M243.573 31.2334L238.545 67.5099H226.685L231.713 31.2334H243.573Z" fill="#6EC0BD"/>
<path d="M231.033 102.491L233.627 106.839H232.054L229.764 102.741H228.262V106.839H226.938V97.1772H229.46C230.658 97.1772 231.569 97.4101 232.181 97.8589C232.805 98.3246 233.109 99.0105 233.109 99.9039C233.109 100.586 232.948 101.128 232.59 101.538C232.252 101.966 231.734 102.292 231.033 102.487V102.491ZM231.177 101.288C231.535 101 231.696 100.535 231.696 99.9039C231.696 99.3111 231.535 98.8793 231.16 98.6125C230.818 98.3416 230.245 98.2145 229.443 98.2145H228.262V101.716H229.604C230.304 101.716 230.823 101.572 231.181 101.288H231.177Z" fill="#6EC0BD"/>
<path d="M226.896 16.9396L219.831 67.5099H209.261L209.333 62.6239C206.435 66.7563 202.859 68.8013 198.616 68.8013C194.912 68.8013 192.103 67.5269 190.172 64.9611C188.261 62.4123 187.291 58.7838 187.291 54.1137C187.291 52.5514 187.396 50.9891 187.628 49.4098C193.407 46.8779 197.97 43.804 201.277 40.1798C204.086 37.1101 205.356 33.7145 205.035 30.0141C206.553 30.031 207.971 30.3401 209.257 30.8609C210.615 31.4367 211.762 32.2072 212.711 33.2107L215.09 15.7202L226.896 16.9438V16.9396ZM209.797 53.8258L211.64 40.7514C210.463 39.405 209.063 38.7233 207.439 38.7233C205.524 38.7233 203.985 39.5489 202.821 41.2213C201.64 42.8556 200.8 44.8668 200.298 47.2378C199.813 49.5876 199.565 51.8909 199.565 54.1137C199.565 56.3365 199.851 57.865 200.442 58.7118C201.032 59.5543 201.834 59.9523 202.892 59.9523C205.022 59.9523 207.33 57.9243 209.797 53.8258Z" fill="#6EC0BD"/>
<path d="M210.797 97.1772L213.871 106.839H212.479L211.746 104.396H208.093L207.376 106.839H206.035L209.131 97.1772H210.797ZM211.425 103.316L209.94 98.2865L208.439 103.316H211.425Z" fill="#6EC0BD"/>
<path d="M205.039 30.0098C205.36 33.7103 204.09 37.1059 201.281 40.1755C197.974 43.7998 193.407 46.8737 187.632 49.4056C186.241 40.7471 186.578 34.32 188.687 30.1538C190.783 25.9876 193.554 23.5065 197.025 22.7359C198.797 22.3421 200.404 22.52 201.821 23.3117C203.255 24.0823 204.221 25.6827 204.757 28.0537C204.9 28.7142 204.989 29.362 205.043 30.0098H205.039Z" fill="#005B55"/>
<path d="M194.929 97.1772L194.786 98.3077H192.12V106.839H190.8V98.3077H188.063V97.1772H194.929Z" fill="#6EC0BD"/>
<path d="M186.81 11.9986C186.827 16.6686 184.305 22.5792 179.226 29.705C175.182 24.8571 172.461 20.0812 171.086 15.3731C169.728 10.6691 170.458 6.5368 173.338 2.96335C174.857 1.0623 176.434 0.0715484 178.045 0.00380518C179.674 -0.0512362 181.192 0.490716 182.605 1.63812C185.376 3.88211 186.772 7.33278 186.81 11.9986Z" fill="#005B55"/>
<path d="M181.23 32.8677C183.659 34.7688 184.895 37.1948 184.895 40.1586C184.895 43.8421 183.288 46.8356 180.083 49.1727C179.332 49.6935 178.493 50.1973 177.577 50.663C177.257 50.8239 176.898 50.9848 176.557 51.1288C175.751 51.4675 174.907 51.8104 174.001 52.1153C173.355 52.327 172.676 52.526 171.98 52.725C170.871 53.0129 169.707 53.2796 168.475 53.5167C166.97 53.8046 165.363 54.0544 163.663 54.2534C163.359 54.2704 163.055 54.3254 162.735 54.3593C162.591 54.3805 162.448 54.3804 162.288 54.3974C162.161 54.4143 162.018 54.4143 161.891 54.4313H161.836C162.052 58.1656 164.021 60.0328 167.72 60.0328C167.83 60.0328 167.935 60.0328 168.045 60.0158C168.15 60.0328 168.243 60.0158 168.349 59.9989C169.264 59.965 170.137 59.8168 171.014 59.584C171.39 59.4951 171.765 59.3892 172.141 59.2453C173.52 58.7245 175.093 57.8819 176.826 56.7134L181.015 63.7714C178.349 65.6936 175.595 67.0569 172.769 67.8825C172.356 67.9926 171.942 68.1154 171.533 68.2085C171.069 68.3144 170.601 68.4075 170.12 68.4795C169.496 68.5854 168.868 68.6785 168.226 68.7293C167.564 68.7843 166.902 68.8013 166.24 68.8013C165.578 68.8013 164.915 68.7843 164.291 68.7293C159.909 68.4245 156.509 67.04 154.093 64.6139C151.355 61.8322 149.959 58.0428 149.959 53.2839C149.959 49.6596 150.676 46.065 152.106 42.5084C153.519 38.935 155.809 35.9712 158.994 33.5833C160.386 32.5206 161.959 31.6949 163.697 31.1064C164.755 30.7465 165.86 30.4756 167.024 30.2977C167.467 30.2258 167.919 30.1749 168.399 30.1368C169.243 30.0437 170.099 30.0098 170.976 30.0098C171.854 30.0098 172.638 30.0268 173.406 30.1199C173.891 30.1538 174.355 30.2088 174.802 30.2808C175.519 30.3909 176.194 30.5518 176.822 30.7127C177.037 30.7846 177.252 30.8397 177.468 30.9117C177.826 31.0344 178.18 31.1614 178.522 31.2885C179.526 31.7203 180.416 32.2411 181.226 32.872L181.23 32.8677ZM170.601 45.0404C172.208 43.7321 173.018 42.2925 173.018 40.6963C173.018 39.8876 172.786 39.206 172.301 38.6513C172.086 38.4015 171.816 38.2195 171.478 38.0967C171.369 38.0586 171.263 38.0247 171.137 37.9866C170.976 37.9527 170.799 37.8977 170.635 37.8807C170.529 37.8638 170.42 37.8638 170.297 37.8469H169.901C169.669 37.8469 169.437 37.8469 169.222 37.8807C169.007 37.8977 168.792 37.9358 168.593 37.9866C167.159 38.2914 165.945 39.1382 164.983 40.5185C163.747 42.3137 162.836 44.5958 162.3 47.3606H162.372C162.587 47.3394 162.802 47.3394 163.017 47.3224C163.249 47.3055 163.46 47.2886 163.675 47.2674C164.089 47.2336 164.502 47.1785 164.894 47.1235H164.911C165.287 47.0684 165.662 46.9964 166.021 46.9244H166.037C166.539 46.8144 167.02 46.6916 167.45 46.5815C168.775 46.2047 169.829 45.6839 170.601 45.0361V45.0404Z" fill="#005B55"/>
<path d="M173.819 97.1772L176.894 106.839H175.502L174.768 104.396H171.137L170.403 106.839H169.062L172.136 97.1772H173.819ZM174.443 103.316L172.959 98.2865L171.44 103.316H174.448H174.443Z" fill="#6EC0BD"/>
<path d="M165.072 11.9986C165.105 16.6686 162.566 22.5792 157.488 29.705C153.443 24.8571 150.723 20.0812 149.348 15.3731C147.985 10.6691 148.736 6.5368 151.6 2.96335C153.118 1.0623 154.696 0.0715484 156.324 0.00380518C157.931 -0.0512362 159.453 0.490716 160.883 1.63812C163.637 3.88211 165.034 7.33278 165.072 11.9986Z" fill="#005B55"/>
<path d="M154.464 102.491L157.041 106.839H155.463L153.173 102.741H151.672V106.839H150.347V97.1772H152.869C154.088 97.1772 154.978 97.4101 155.607 97.8589C156.214 98.3246 156.539 99.0105 156.539 99.9039C156.539 100.586 156.358 101.128 156.02 101.538C155.678 101.966 155.16 102.292 154.46 102.487L154.464 102.491ZM154.607 101.288C154.945 101 155.126 100.535 155.126 99.9039C155.126 99.3111 154.945 98.8793 154.59 98.6125C154.232 98.3416 153.658 98.2145 152.874 98.2145H151.676V101.716H153.021C153.717 101.716 154.257 101.572 154.611 101.288H154.607Z" fill="#6EC0BD"/>
<path d="M149.778 20.2251L148.614 37.8596C148.432 34.7518 147.825 32.1861 146.808 30.158C144.733 25.9918 141.941 23.5107 138.47 22.7401C136.682 22.3421 135.091 22.5242 133.674 23.316C133.371 23.4768 133.084 23.6928 132.835 23.9299L133.978 20.2294H149.778V20.2251Z" fill="#6EC0BD"/>
<path d="M148.614 37.8596C148.829 41.1112 148.58 44.9557 147.846 49.3886V49.4056C143.624 47.5553 140.047 45.4002 137.146 42.9784C136.538 42.4576 135.948 41.9368 135.391 41.3949C134.978 41.0011 134.585 40.5862 134.21 40.1755C131.831 37.5717 130.562 34.7349 130.418 31.6653C130.363 30.4967 130.473 29.2943 130.739 28.0537C131.169 26.1866 131.848 24.8021 132.835 23.9256C133.084 23.6928 133.371 23.4768 133.674 23.3117C135.087 22.52 136.682 22.3421 138.47 22.7359C141.941 23.5065 144.729 25.9876 146.808 30.1538C147.829 32.1818 148.437 34.7518 148.614 37.8553V37.8596Z" fill="#005B55"/>
<path d="M147.846 49.4098L146.665 67.548H134.518L136.361 49.8586C136.576 47.6146 136.846 45.3155 137.15 42.9826C140.047 45.4045 143.624 47.5596 147.85 49.4098H147.846Z" fill="#6EC0BD"/>
<path d="M137.234 97.1772L137.095 98.3077H134.425V106.839H133.105V98.3077H130.368V97.1772H137.234Z" fill="#6EC0BD"/>
<path d="M135.395 41.3991L128.47 62.7171H116.609L114.302 29.6161C114.175 33.7145 113.944 37.3049 113.623 40.3915C113.319 43.4822 112.855 46.6958 112.277 50.0533L109.363 67.5438H97.2158L107.182 20.2251H122.172L123.872 52.6403L130.418 31.6653C130.562 34.7349 131.831 37.5717 134.21 40.1755C134.585 40.5862 134.978 41.0011 135.391 41.3949L135.395 41.3991Z" fill="#6EC0BD"/>
<path d="M118.132 100.912C118.435 101.233 118.579 101.593 118.579 102.046C118.579 102.499 118.435 102.872 118.132 103.177C117.828 103.465 117.47 103.626 117.022 103.626C116.575 103.626 116.2 103.465 115.896 103.16C115.61 102.872 115.449 102.495 115.449 102.046C115.449 101.597 115.61 101.216 115.896 100.912C116.2 100.624 116.575 100.463 117.022 100.463C117.47 100.463 117.828 100.624 118.132 100.912Z" fill="#6EC0BD"/>
<path d="M100.506 102.491L103.1 106.839H101.522L99.2319 102.741H97.7303V106.839H96.406V97.1772H98.9282C100.126 97.1772 101.037 97.4101 101.649 97.8589C102.273 98.3246 102.581 99.0105 102.581 99.9039C102.581 100.586 102.421 101.128 102.062 101.538C101.72 101.966 101.202 102.292 100.501 102.487L100.506 102.491ZM100.653 101.288C101.012 101 101.172 100.535 101.172 99.9039C101.172 99.3111 101.012 98.8793 100.636 98.6125C100.295 98.3416 99.7211 98.2145 98.9197 98.2145H97.7388V101.716H99.0842C99.7802 101.716 100.299 101.572 100.657 101.288H100.653Z" fill="#6EC0BD"/>
<path d="M99.2572 31.2673L96.8066 39.6378H89.9527L87.8607 54.8123C87.7679 55.6422 87.7173 56.1799 87.7173 56.4466C87.7173 57.4543 87.9324 58.1698 88.3457 58.6017C88.738 59.0336 89.3285 59.2495 90.1003 59.2495C91.0831 59.2495 92.3358 58.9108 93.8373 58.2249L96.8783 66.0535C95.3937 66.9722 93.6939 67.6539 91.7959 68.1366C89.9021 68.6023 88.1138 68.8394 86.4309 68.8394C82.9596 68.8394 80.294 67.9249 78.4677 66.0577C76.6456 64.1905 75.7304 61.4977 75.7304 57.9582C75.7304 56.9505 75.7852 55.9131 75.9286 54.8123L78.0206 39.6378H73.4949L74.5663 31.2673H79.7204L81.9558 23.3668L92.3316 22.1431L91.1126 31.2631H99.2487L99.2572 31.2673Z" fill="#6EC0BD"/>
<path d="M80.2729 97.1772L83.3519 106.839H81.9558L81.2219 104.396H77.5693L76.8565 106.839H75.511L78.6069 97.1772H80.2729ZM80.9014 103.316L79.4167 98.2865L77.9152 103.316H80.9014Z" fill="#6EC0BD"/>
<path d="M68.3956 32.8847C70.8251 34.8027 72.0609 37.2287 72.0609 40.1756C72.0609 48.2582 64.3719 53.034 49.0022 54.4694C49.2342 58.1868 51.1871 60.0539 54.9071 60.0539C56.3918 60.0539 57.8385 59.8041 59.2346 59.2834C60.6307 58.7626 62.2208 57.9031 63.9923 56.7345L68.1974 63.8094C63.4903 67.1712 58.5555 68.8394 53.4014 68.8394C48.2473 68.8394 43.9535 67.4591 41.1993 64.6562C38.4451 61.8703 37.0659 58.0809 37.0659 53.322C37.0659 49.6977 37.7661 46.1031 39.1959 42.5296C40.6088 38.9731 42.916 35.9924 46.0835 33.6256C49.2511 31.2377 53.258 30.031 58.1591 30.031C62.5413 30.031 65.9577 31.0006 68.3914 32.8889L68.3956 32.8847ZM57.7162 45.0784C59.3063 43.7702 60.133 42.3137 60.133 40.7344C60.133 39.9088 59.8841 39.2271 59.416 38.6894C58.9309 38.1348 58.1633 37.8638 57.0709 37.8638C55.0337 37.8638 53.4056 38.7614 52.1529 40.5566C50.9171 42.356 50.0061 44.6339 49.4704 47.3987C53.3719 47.1827 56.1261 46.391 57.7162 45.0784Z" fill="#6EC0BD"/>
<path d="M61.9045 98.1807C62.7775 98.8624 63.2288 100.12 63.2288 101.953C63.2288 103.786 62.7818 104.989 61.9045 105.726C61.0272 106.462 59.9727 106.839 58.7031 106.839H56.4129V97.1772H58.4163C59.8673 97.1772 61.0272 97.5202 61.9045 98.1849V98.1807ZM60.9892 104.951C61.5417 104.396 61.8117 103.405 61.8117 101.953C61.8117 100.929 61.6683 100.158 61.3857 99.6033C61.0989 99.0656 60.7235 98.7057 60.2933 98.5109C59.8293 98.3289 59.3105 98.24 58.7031 98.24H57.7373V105.781H58.8086C59.7028 105.781 60.4198 105.51 60.9934 104.951H60.9892Z" fill="#6EC0BD"/>
<path d="M42.8148 20.2251L23.9781 67.5438H8.30482L2.00767 20.2251H14.8888L17.4659 58.2969L30.077 20.2251H42.8148Z" fill="#6EC0BD"/>
<path d="M42.0302 97.1772H40.7059V106.839H42.0302V97.1772Z" fill="#6EC0BD"/>
<path d="M26.4624 97.1772V103.731C26.4624 104.379 26.3359 104.934 26.0659 105.421C25.796 105.925 25.4248 106.301 24.906 106.589C24.4041 106.86 23.7968 107 23.0966 107C22.0253 107 21.2028 106.695 20.6081 106.102C20.0345 105.51 19.735 104.718 19.735 103.731V97.1772H21.0594V103.642C21.0594 104.379 21.2408 104.934 21.5782 105.315C21.903 105.692 22.4218 105.87 23.0966 105.87C23.7714 105.87 24.2776 105.687 24.6361 105.315C24.9609 104.955 25.1211 104.396 25.1211 103.642V97.1772H26.4666H26.4624Z" fill="#6EC0BD"/>
<path d="M6.10314 105.078L6.76533 105.903C6.47852 106.225 6.08627 106.479 5.61809 106.695C5.15414 106.894 4.61426 107 4.02799 107C3.23926 107 2.54333 106.805 1.93597 106.407C1.32439 106.03 0.843558 105.455 0.501918 104.701C0.160277 103.947 0 103.05 0 101.987C0 100.924 0.181367 100.031 0.535661 99.2773C0.873084 98.5406 1.35813 97.9648 1.96971 97.5879C2.57707 97.1899 3.25613 96.9952 3.99003 96.9952C4.56365 96.9952 5.04447 97.0841 5.45782 97.2238C5.8332 97.3678 6.24654 97.6218 6.65567 97.9605L5.92599 98.8073C5.35237 98.3416 4.72814 98.1045 4.08282 98.1045C3.27722 98.1045 2.6319 98.3924 2.15107 99.0232C1.64916 99.6329 1.41718 100.619 1.41718 101.983C1.41718 103.346 1.64916 104.282 2.13421 104.93C2.61925 105.56 3.26457 105.865 4.06595 105.865C4.46242 105.865 4.83359 105.793 5.13727 105.666C5.44517 105.522 5.76571 105.328 6.10314 105.074V105.078Z" fill="#6EC0BD"/>
</svg>
