<svg width="36" height="36" viewBox="0 0 36 36" fill="none" xmlns="http://www.w3.org/2000/svg">
<rect y="0.000228882" width="36" height="36" rx="18" fill="#006A68"/>
<path d="M18 8.00023C23.523 8.00023 28 12.4772 28 18.0002C28 23.5232 23.523 28.0002 18 28.0002C16.2328 28.0031 14.4967 27.5354 12.97 26.6452L8.00401 28.0002L9.35601 23.0322C8.46511 21.5051 7.99706 19.7682 8.00001 18.0002C8.00001 12.4772 12.477 8.00023 18 8.00023ZM14.592 13.3002L14.392 13.3082C14.2625 13.3161 14.136 13.3501 14.02 13.4082C13.9115 13.4697 13.8125 13.5465 13.726 13.6362C13.606 13.7492 13.538 13.8472 13.465 13.9422C13.0951 14.4231 12.896 15.0135 12.899 15.6202C12.901 16.1102 13.029 16.5872 13.229 17.0332C13.638 17.9352 14.311 18.8902 15.199 19.7752C15.413 19.9882 15.623 20.2022 15.849 20.4012C16.9524 21.3727 18.2673 22.0733 19.689 22.4472L20.257 22.5342C20.442 22.5442 20.627 22.5302 20.813 22.5212C21.1043 22.5062 21.3886 22.4273 21.646 22.2902C21.777 22.2228 21.9048 22.1494 22.029 22.0702C22.029 22.0702 22.072 22.0422 22.154 21.9802C22.289 21.8802 22.372 21.8092 22.484 21.6922C22.567 21.6062 22.639 21.5052 22.694 21.3902C22.772 21.2272 22.85 20.9162 22.882 20.6572C22.906 20.4592 22.899 20.3512 22.896 20.2842C22.892 20.1772 22.803 20.0662 22.706 20.0192L22.124 19.7582C22.124 19.7582 21.254 19.3792 20.722 19.1372C20.6663 19.1129 20.6067 19.099 20.546 19.0962C20.4776 19.0892 20.4085 19.0969 20.3433 19.1188C20.2781 19.1407 20.2183 19.1763 20.168 19.2232C20.163 19.2212 20.096 19.2782 19.373 20.1542C19.3315 20.21 19.2744 20.2521 19.2088 20.2753C19.1433 20.2984 19.0723 20.3016 19.005 20.2842C18.9399 20.2668 18.876 20.2447 18.814 20.2182C18.69 20.1662 18.647 20.1462 18.562 20.1102C17.9881 19.8598 17.4567 19.5214 16.987 19.1072C16.861 18.9972 16.744 18.8772 16.624 18.7612C16.2306 18.3845 15.8877 17.9582 15.604 17.4932L15.545 17.3982C15.5026 17.3344 15.4684 17.2655 15.443 17.1932C15.405 17.0462 15.504 16.9282 15.504 16.9282C15.504 16.9282 15.747 16.6622 15.86 16.5182C15.97 16.3782 16.063 16.2422 16.123 16.1452C16.241 15.9552 16.278 15.7602 16.216 15.6092C15.936 14.9252 15.646 14.2442 15.348 13.5682C15.289 13.4342 15.114 13.3382 14.955 13.3192C14.901 13.3132 14.847 13.3072 14.793 13.3032C14.6587 13.2966 14.5241 13.2979 14.39 13.3072L14.592 13.3002Z" fill="white"/>
</svg>
